<?xml version="1.0" encoding="UTF-8"?>
<svg version="1.1" xmlns="http://www.w3.org/2000/svg" width="48" height="48">
<path d="M0 0 C1.98 0 3.96 0 6 0 C6 1.32 6 2.64 6 4 C6.99 4 7.98 4 9 4 C9 2.68 9 1.36 9 0 C10.98 0 12.96 0 15 0 C16.33332095 2.6666419 15.67102033 4.16680303 15 7 C15.99 7 16.98 7 18 7 C18 9.97 18 12.94 18 16 C16.02 16 14.04 16 12 16 C12 15.01 12 14.02 12 13 C10.02 13 8.04 13 6 13 C6 15.97 6 18.94 6 22 C5.01 22 4.02 22 3 22 C3 22.99 3 23.98 3 25 C2.01 25 1.02 25 0 25 C0 25.99 0 26.98 0 28 C-0.99 28 -1.98 28 -3 28 C-3 28.99 -3 29.98 -3 31 C-3.99 31 -4.98 31 -6 31 C-6 31.99 -6 32.98 -6 34 C-7.3125 35.6875 -7.3125 35.6875 -9 37 C-9.99 37 -10.98 37 -12 37 C-12 37.99 -12 38.98 -12 40 C-12.99 40 -13.98 40 -15 40 C-15 40.99 -15 41.98 -15 43 C-16.98 43 -18.96 43 -21 43 C-21 43.99 -21 44.98 -21 46 C-23.97 46.495 -23.97 46.495 -27 47 C-27 43.7 -27 40.4 -27 37 C-26.01 37 -25.02 37 -24 37 C-24 35.02 -24 33.04 -24 31 C-23.01 31 -22.02 31 -21 31 C-21 30.01 -21 29.02 -21 28 C-20.01 28 -19.02 28 -18 28 C-18 27.01 -18 26.02 -18 25 C-17.01 25 -16.02 25 -15 25 C-15 23.02 -15 21.04 -15 19 C-14.01 19 -13.02 19 -12 19 C-12 18.01 -12 17.02 -12 16 C-11.01 16 -10.02 16 -9 16 C-9 15.01 -9 14.02 -9 13 C-8.01 13 -7.02 13 -6 13 C-6 12.01 -6 11.02 -6 10 C-3.03 10 -0.06 10 3 10 C3 9.01 3 8.02 3 7 C1.02 7 -0.96 7 -3 7 C-3 6.01 -3 5.02 -3 4 C-2.01 4 -1.02 4 0 4 C0 2.68 0 1.36 0 0 Z " fill="#EF7C03" transform="translate(28,1)"/>
<path d="M0 0 C1.98 0 3.96 0 6 0 C6 1.32 6 2.64 6 4 C6.99 4 7.98 4 9 4 C9 2.68 9 1.36 9 0 C10.98 0 12.96 0 15 0 C16.33332095 2.6666419 15.67102033 4.16680303 15 7 C15.99 7 16.98 7 18 7 C18 9.97 18 12.94 18 16 C16.02 16 14.04 16 12 16 C12 15.01 12 14.02 12 13 C10.02 13 8.04 13 6 13 C6 15.97 6 18.94 6 22 C5.01 22 4.02 22 3 22 C3 19.03 3 16.06 3 13 C0.03 13 -2.94 13 -6 13 C-6 12.01 -6 11.02 -6 10 C-3.03 10 -0.06 10 3 10 C3 9.01 3 8.02 3 7 C1.02 7 -0.96 7 -3 7 C-3 6.01 -3 5.02 -3 4 C-2.01 4 -1.02 4 0 4 C0 2.68 0 1.36 0 0 Z " fill="#509739" transform="translate(28,1)"/>
<path d="M0 0 C0.99 0 1.98 0 3 0 C3 0.99 3 1.98 3 3 C3.99 3 4.98 3 6 3 C6 3.99 6 4.98 6 6 C5.01 6 4.02 6 3 6 C3 6.66 3 7.32 3 8 C1.02 8.33 -0.96 8.66 -3 9 C-3 10.98 -3 12.96 -3 15 C-2.01 15 -1.02 15 0 15 C0 14.01 0 13.02 0 12 C1.98 12 3.96 12 6 12 C6 12.99 6 13.98 6 15 C5.01 15 4.02 15 3 15 C3 15.99 3 16.98 3 18 C1.02 18 -0.96 18 -3 18 C-3 18.99 -3 19.98 -3 21 C-4.98 21.33 -6.96 21.66 -9 22 C-9 18.7 -9 15.4 -9 12 C-8.01 12 -7.02 12 -6 12 C-6 10.02 -6 8.04 -6 6 C-5.01 6 -4.02 6 -3 6 C-3 5.01 -3 4.02 -3 3 C-2.01 3 -1.02 3 0 3 C0 2.01 0 1.02 0 0 Z " fill="#BE600F" transform="translate(10,26)"/>
<path d="M0 0 C0.99 0 1.98 0 3 0 C3 0.99 3 1.98 3 3 C3.99 3 4.98 3 6 3 C6 2.01 6 1.02 6 0 C6.99 0 7.98 0 9 0 C9 1.98 9 3.96 9 6 C7.02 6 5.04 6 3 6 C3 8.97 3 11.94 3 15 C2.01 15 1.02 15 0 15 C0 12.03 0 9.06 0 6 C-2.97 6 -5.94 6 -9 6 C-9 5.01 -9 4.02 -9 3 C-6.03 3 -3.06 3 0 3 C0 2.01 0 1.02 0 0 Z " fill="#453513" transform="translate(31,8)"/>
<path d="M0 0 C1.98 0 3.96 0 6 0 C6 1.32 6 2.64 6 4 C6.99 4 7.98 4 9 4 C9 5.98 9 7.96 9 10 C8.01 10 7.02 10 6 10 C6 9.01 6 8.02 6 7 C3.03 7 0.06 7 -3 7 C-3 6.01 -3 5.02 -3 4 C-2.01 4 -1.02 4 0 4 C0 2.68 0 1.36 0 0 Z " fill="#469132" transform="translate(28,1)"/>
<path d="M0 0 C0.99 0 1.98 0 3 0 C3 2.97 3 5.94 3 9 C1.02 9 -0.96 9 -3 9 C-3 9.99 -3 10.98 -3 12 C-3.99 12 -4.98 12 -6 12 C-6 10.02 -6 8.04 -6 6 C-5.01 6 -4.02 6 -3 6 C-3 5.01 -3 4.02 -3 3 C-2.01 3 -1.02 3 0 3 C0 2.01 0 1.02 0 0 Z " fill="#BC6111" transform="translate(19,14)"/>
<path d="M0 0 C1.98 0 3.96 0 6 0 C6 2.97 6 5.94 6 9 C4.02 9 2.04 9 0 9 C-1.125 3.375 -1.125 3.375 0 0 Z " fill="#F88706" transform="translate(22,14)"/>
<path d="M0 0 C0.99 0 1.98 0 3 0 C3 1.98 3 3.96 3 6 C1.02 6 -0.96 6 -3 6 C-3 6.99 -3 7.98 -3 9 C-3.99 9 -4.98 9 -6 9 C-6 7.02 -6 5.04 -6 3 C-4.02 2.67 -2.04 2.34 0 2 C0 1.34 0 0.68 0 0 Z " fill="#F17E0D" transform="translate(13,32)"/>
<path d="M0 0 C0.99 0 1.98 0 3 0 C3 1.98 3 3.96 3 6 C3.99 6 4.98 6 6 6 C6 6.99 6 7.98 6 9 C4.02 9.33 2.04 9.66 0 10 C0 6.7 0 3.4 0 0 Z " fill="#794627" transform="translate(1,38)"/>
<path d="M0 0 C1.98 0 3.96 0 6 0 C6 0.99 6 1.98 6 3 C5.01 3 4.02 3 3 3 C3 3.99 3 4.98 3 6 C1.02 6 -0.96 6 -3 6 C-3 5.01 -3 4.02 -3 3 C-2.01 3 -1.02 3 0 3 C0 2.01 0 1.02 0 0 Z " fill="#864215" transform="translate(10,38)"/>
<path d="M0 0 C0.99 0 1.98 0 3 0 C3 3.96 3 7.92 3 12 C2.01 12 1.02 12 0 12 C0 8.04 0 4.08 0 0 Z " fill="#D06F13" transform="translate(28,14)"/>
<path d="M0 0 C0.99 0 1.98 0 3 0 C3 2.97 3 5.94 3 9 C1.02 9 -0.96 9 -3 9 C-3 8.01 -3 7.02 -3 6 C-2.01 6 -1.02 6 0 6 C0 4.02 0 2.04 0 0 Z " fill="#2F7416" transform="translate(43,8)"/>
<path d="M0 0 C1.98 0 3.96 0 6 0 C6 3 6 3 4.6875 4.6875 C3 6 3 6 0 6 C0 4.02 0 2.04 0 0 Z " fill="#824820" transform="translate(16,32)"/>
<path d="M0 0 C0.99 0 1.98 0 3 0 C3 1.98 3 3.96 3 6 C1.02 6 -0.96 6 -3 6 C-3.33 5.01 -3.66 4.02 -4 3 C-2.68 3 -1.36 3 0 3 C0 2.01 0 1.02 0 0 Z " fill="#FFA709" transform="translate(25,17)"/>
<path d="M0 0 C1.98 0 3.96 0 6 0 C6 0.99 6 1.98 6 3 C5.01 3 4.02 3 3 3 C3 3.99 3 4.98 3 6 C2.01 6 1.02 6 0 6 C0 4.02 0 2.04 0 0 Z " fill="#803F17" transform="translate(22,26)"/>
<path d="M0 0 C1.98 0 3.96 0 6 0 C6 1.98 6 3.96 6 6 C5.01 6 4.02 6 3 6 C3 5.01 3 4.02 3 3 C2.01 3 1.02 3 0 3 C0 2.01 0 1.02 0 0 Z " fill="#F69310" transform="translate(13,26)"/>
<path d="M0 0 C0 0.33 0 0.66 0 1 C-1.98 1 -3.96 1 -6 1 C-6 2.98 -6 4.96 -6 7 C-6.99 7 -7.98 7 -9 7 C-9 5.02 -9 3.04 -9 1 C-6.04335481 -0.4783226 -3.25770263 -0.06032783 0 0 Z " fill="#E67A0E" transform="translate(28,25)"/>
<path d="M0 0 C0.99 0 1.98 0 3 0 C3 1.98 3 3.96 3 6 C2.67 5.34 2.34 4.68 2 4 C0.02 4.33 -1.96 4.66 -4 5 C-3.67 4.34 -3.34 3.68 -3 3 C-2.01 3 -1.02 3 0 3 C0 2.01 0 1.02 0 0 Z " fill="#235D0A" transform="translate(37,8)"/>
<path d="M0 0 C0.99 0 1.98 0 3 0 C3 1.98 3 3.96 3 6 C2.01 6 1.02 6 0 6 C0 4.02 0 2.04 0 0 Z " fill="#CE630D" transform="translate(4,38)"/>
<path d="M0 0 C0.99 0 1.98 0 3 0 C3 1.98 3 3.96 3 6 C2.01 6 1.02 6 0 6 C0 4.02 0 2.04 0 0 Z " fill="#793B13" transform="translate(4,32)"/>
<path d="M0 0 C0.99 0 1.98 0 3 0 C3 1.98 3 3.96 3 6 C2.01 6 1.02 6 0 6 C0 4.02 0 2.04 0 0 Z " fill="#814416" transform="translate(13,20)"/>
<path d="M0 0 C0.99 0 1.98 0 3 0 C3 1.98 3 3.96 3 6 C2.01 6 1.02 6 0 6 C0 4.02 0 2.04 0 0 Z " fill="#924B10" transform="translate(31,17)"/>
<path d="M0 0 C1.98 0 3.96 0 6 0 C6 0.99 6 1.98 6 3 C4.02 3 2.04 3 0 3 C0 2.01 0 1.02 0 0 Z " fill="#8E491A" transform="translate(22,11)"/>
<path d="M0 0 C0.99 0 1.98 0 3 0 C3 1.98 3 3.96 3 6 C2.01 6 1.02 6 0 6 C0 4.02 0 2.04 0 0 Z " fill="#3BBD21" transform="translate(40,8)"/>
</svg>
